<?xml version="1.0" encoding="UTF-8"?>
<svg version="1.1" xmlns="http://www.w3.org/2000/svg" width="240" height="277">
<path d="M0 0 C2.47167969 1.04711914 2.47167969 1.04711914 4.921875 2.53515625 C6.31575439 3.36648071 6.31575439 3.36648071 7.73779297 4.21459961 C8.73182129 4.82440674 9.72584961 5.43421387 10.75 6.0625 C12.91352647 7.35766667 15.07760792 8.65190663 17.2421875 9.9453125 C18.35819336 10.61723633 19.47419922 11.28916016 20.62402344 11.98144531 C26.00384799 15.19813532 31.43934597 18.31640645 36.875 21.4375 C39.06005495 22.69633843 41.24494995 23.95545455 43.4296875 25.21484375 C44.51475586 25.83987793 45.59982422 26.46491211 46.71777344 27.10888672 C53.22217941 30.85651605 59.72375795 34.60904961 66.2253418 38.36157227 C71.77686292 41.56532462 77.33020797 44.76584577 82.88671875 47.9609375 C84.59504883 48.94416992 84.59504883 48.94416992 86.33789062 49.94726562 C88.47787488 51.1788484 90.61844226 52.40941886 92.75976562 53.63867188 C94.71952018 54.76709268 96.6620786 55.92607637 98.5834198 57.11872864 C101.17411789 58.54524458 103.07256857 59.38742933 105.81794739 60.22062683 C110.47587571 61.8770716 114.15014566 63.85221933 117 68 C119.85655097 77.21517543 119.18415554 87.48424677 119.0807457 97.05523181 C119.05627051 100.16178144 119.07946023 103.26723756 119.10272312 106.37373978 C119.15728653 113.70732563 119.1363986 121.03796537 119.06542969 128.37133789 C118.99349478 135.91684682 119.03747863 143.45521774 119.14066029 151.00020355 C119.22605319 157.49787467 119.24477531 163.99336366 119.20955944 170.49150139 C119.18886954 174.36414376 119.19139612 178.23291669 119.25588989 182.10516167 C119.60170428 205.50582636 119.60170428 205.50582636 115.33077812 211.24181938 C111.37688225 214.72439021 107.04876853 216.6517711 102.07774925 218.26900864 C98.96321118 219.36476186 96.369648 220.9941064 93.56640625 222.73046875 C91.56553379 223.88355831 89.56422606 225.03589289 87.5625 226.1875 C85.31379049 227.4830528 83.06509292 228.77862632 80.81640625 230.07421875 C79.12281982 231.0494751 79.12281982 231.0494751 77.39501953 232.04443359 C70.8480988 235.81552773 64.30468935 239.59271076 57.76098633 243.36938477 C52.29578707 246.52319079 46.82908972 249.67434329 41.359375 252.8203125 C40.26463867 253.4505835 39.16990234 254.08085449 38.04199219 254.73022461 C35.86637121 255.98244905 33.68995231 257.2332883 31.51269531 258.48266602 C26.19979745 261.53997366 20.92017249 264.63908973 15.6875 267.83203125 C14.18558105 268.74251221 14.18558105 268.74251221 12.65332031 269.67138672 C10.77070751 270.81659535 8.89457925 271.9725597 7.02636719 273.14111328 C5.76808105 273.90464111 5.76808105 273.90464111 4.484375 274.68359375 C3.75959961 275.13275146 3.03482422 275.58190918 2.28808594 276.04467773 C-0.68449546 277.28579073 -2.80145291 277.3203706 -6 277 C-8.47167969 275.95288086 -8.47167969 275.95288086 -10.921875 274.46484375 C-11.85112793 273.91062744 -12.78038086 273.35641113 -13.73779297 272.78540039 C-14.73182129 272.17559326 -15.72584961 271.56578613 -16.75 270.9375 C-18.91352647 269.64233333 -21.07760792 268.34809337 -23.2421875 267.0546875 C-24.91619629 266.04680176 -24.91619629 266.04680176 -26.62402344 265.01855469 C-32.00384799 261.80186468 -37.43934597 258.68359355 -42.875 255.5625 C-45.06005495 254.30366157 -47.24494995 253.04454545 -49.4296875 251.78515625 C-51.05729004 250.84760498 -51.05729004 250.84760498 -52.71777344 249.89111328 C-59.22217941 246.14348395 -65.72375795 242.39095039 -72.2253418 238.63842773 C-77.77686292 235.43467538 -83.33020797 232.23415423 -88.88671875 229.0390625 C-90.59504883 228.05583008 -90.59504883 228.05583008 -92.33789062 227.05273438 C-94.47787488 225.8211516 -96.61844226 224.59058114 -98.75976562 223.36132812 C-100.71952018 222.23290732 -102.6620786 221.07392363 -104.5834198 219.88127136 C-107.17411789 218.45475542 -109.07256857 217.61257067 -111.81794739 216.77937317 C-116.47587571 215.1229284 -120.15014566 213.14778067 -123 209 C-125.85655097 199.78482457 -125.18415554 189.51575323 -125.0807457 179.94476819 C-125.05627051 176.83821856 -125.07946023 173.73276244 -125.10272312 170.62626022 C-125.15728653 163.29267437 -125.1363986 155.96203463 -125.06542969 148.62866211 C-124.99349478 141.08315318 -125.03747863 133.54478226 -125.14066029 125.99979645 C-125.22605319 119.50212533 -125.24477531 113.00663634 -125.20955944 106.50849861 C-125.18886954 102.63585624 -125.19139612 98.76708331 -125.25588989 94.89483833 C-125.60170428 71.49417364 -125.60170428 71.49417364 -121.33077812 65.75818062 C-117.37688225 62.27560979 -113.04876853 60.3482289 -108.07774925 58.73099136 C-104.96321118 57.63523814 -102.369648 56.0058936 -99.56640625 54.26953125 C-97.56553379 53.11644169 -95.56422606 51.96410711 -93.5625 50.8125 C-91.31379049 49.5169472 -89.06509292 48.22137368 -86.81640625 46.92578125 C-85.68734863 46.27561035 -84.55829102 45.62543945 -83.39501953 44.95556641 C-76.8480988 41.18447227 -70.30468935 37.40728924 -63.76098633 33.63061523 C-58.29578707 30.47680921 -52.82908972 27.32565671 -47.359375 24.1796875 C-46.26463867 23.5494165 -45.16990234 22.91914551 -44.04199219 22.26977539 C-41.86637121 21.01755095 -39.68995231 19.7667117 -37.51269531 18.51733398 C-32.19979745 15.46002634 -26.92017249 12.36091027 -21.6875 9.16796875 C-20.6862207 8.56098145 -19.68494141 7.95399414 -18.65332031 7.32861328 C-16.77070751 6.18340465 -14.89457925 5.0274403 -13.02636719 3.85888672 C-12.18750977 3.34986816 -11.34865234 2.84084961 -10.484375 2.31640625 C-9.75959961 1.86724854 -9.03482422 1.41809082 -8.28808594 0.95532227 C-5.31550454 -0.28579073 -3.19854709 -0.3203706 0 0 Z " fill="#F0F0F0" transform="translate(123,0)"/>
<path d="M0 0 C2.48168945 1.17651367 2.48168945 1.17651367 5.11328125 2.66796875 C6.10110596 3.22403809 7.08893066 3.78010742 8.10668945 4.35302734 C9.16460693 4.95840332 10.22252441 5.5637793 11.3125 6.1875 C12.42262451 6.8160791 13.53274902 7.4446582 14.67651367 8.09228516 C23.06537797 12.85656617 31.40535334 17.70452816 39.72753906 22.58422852 C47.8079191 27.31988282 55.92762517 31.9838446 64.0625 36.625 C64.66204498 36.96706482 65.26158997 37.30912964 65.87930298 37.66156006 C68.64710807 39.24034116 71.41543332 40.81820662 74.18408203 42.39550781 C83.99553999 47.98601429 83.99553999 47.98601429 84.6328125 49.984375 C85.27831634 53.61149181 85.26733481 55.49272459 84 59 C81.37769588 61.69217147 78.43973229 63.7440076 75.3125 65.8125 C74.4973291 66.3580957 73.6821582 66.90369141 72.84228516 67.46582031 C66.83464233 71.17310283 66.83464233 71.17310283 63.04296875 70.38671875 C62.36878906 69.92910156 61.69460937 69.47148438 61 69 C57.54260443 67.27130221 53.78024432 67.51033105 50 68 C47.12970131 69.79393668 45.50868362 70.98263276 44 74 C44.06960937 74.7425 44.13921875 75.485 44.2109375 76.25 C44.41349726 79.64528736 44.22619834 81.80032419 43 85 C39.26023042 88.76809142 34.47134015 91.32282895 29.87695312 93.90917969 C28.06726154 94.96090992 26.36171211 96.09763518 24.64453125 97.29296875 C22 99 22 99 19.875 98.875 C18 98 18 98 16.15649414 96.92504883 C13.65429629 95.85170708 12.29423873 96.00409741 9.62109375 96.32421875 C6.84476657 96.38508067 5.50255244 96.3837027 3.27392578 94.68212891 C1.70695847 92.80063749 0.37539512 90.87891618 -0.9375 88.8125 C-1.40478516 88.13896484 -1.87207031 87.46542969 -2.35351562 86.77148438 C-4.66892359 83.36647265 -6.89261209 80.00251969 -8 76 C-7.02616054 74.31791365 -6.02304948 72.65261839 -5 71 C-4.46744681 66.02950357 -4.8470525 62.94118438 -8 59 C-12.41719208 56.26919796 -16.95708738 56.31455557 -22 57 C-24.93423195 58.79646854 -26.47205355 59.9441071 -28 63 C-27.98549805 63.77077881 -27.97099609 64.54155762 -27.95605469 65.33569336 C-27.90279814 69.72441289 -27.94175571 72.82694619 -30.96679688 76.18017578 C-33.64562707 78.16261276 -36.37201819 79.88272177 -39.25 81.5625 C-40.20519531 82.16384766 -41.16039063 82.76519531 -42.14453125 83.38476562 C-46.33385415 85.98634097 -50.37507954 88.26281206 -55 90 C-55.61875 89.34 -56.2375 88.68 -56.875 88 C-61.21138225 85.22471536 -64.97422702 85.00969991 -70 86 C-73.08798674 88.25057567 -73.08798674 88.25057567 -75 91 C-75.33 91.33 -75.66 91.66 -76 92 C-75.85820313 92.85464844 -75.71640625 93.70929688 -75.5703125 94.58984375 C-75.0531361 98.47774004 -74.98921306 101.19043747 -76 105 C-79.9832789 109.49898423 -85.77102407 112.19999442 -91 115 C-93.77305162 116.58348658 -96.3732459 118.1773543 -99 120 C-99 121.32 -99 122.64 -99 124 C-98.34104736 123.51007568 -97.68209473 123.02015137 -97.00317383 122.51538086 C-94.50770219 120.68533927 -91.99228402 118.88809406 -89.46020508 117.10913086 C-87.84787525 115.96265422 -86.26043911 114.78142228 -84.67382812 113.59960938 C-77.68061784 108.72817806 -73.23440657 107.17714673 -64.75341797 108.64257812 C-61.0879254 109.11839663 -59.01246201 108.0354473 -56 106 C-55.34 106 -54.68 106 -54 106 C-54 121.84 -54 137.68 -54 154 C-57.70152678 154.92538169 -58.63458162 155.08174162 -62 154 C-62.33 155.32 -62.66 156.64 -63 158 C-63.4021875 157.51015625 -63.804375 157.0203125 -64.21875 156.515625 C-66.47015745 154.59995375 -67.58685742 154.65289525 -70.5 154.75 C-71.66015625 154.77320313 -71.66015625 154.77320313 -72.84375 154.796875 C-75.1822807 154.93528295 -75.1822807 154.93528295 -78 156 C-79.9920303 156.08291953 -81.98673713 156.10738177 -83.98046875 156.09765625 C-85.02871826 156.09515869 -86.07696777 156.09266113 -87.15698242 156.09008789 C-89.15208862 156.07643188 -89.15208862 156.07643188 -91.1875 156.0625 C-95.415625 156.041875 -99.64375 156.02125 -104 156 C-104.33 168.21 -104.66 180.42 -105 193 C-110 192 -110 192 -113 190 C-113.36914349 187.73926353 -113.36914349 187.73926353 -113.36076355 184.8621521 C-113.36694954 183.2298893 -113.36694954 183.2298893 -113.3732605 181.56465149 C-113.36247467 180.36559677 -113.35168884 179.16654205 -113.34057617 177.93115234 C-113.34101425 176.67264969 -113.34145233 175.41414703 -113.34190369 174.11750793 C-113.34276646 170.66099736 -113.32509555 167.20479742 -113.30418181 163.7483592 C-113.2854617 160.13821444 -113.28366827 156.52806301 -113.28010559 152.9178772 C-113.27077135 146.07905164 -113.24613905 139.24036949 -113.21605712 132.40160716 C-113.18255588 124.61696492 -113.16603789 116.83231593 -113.15097082 109.04761958 C-113.11959059 93.03166235 -113.06680347 77.01584946 -113 61 C-111.95680351 60.41785233 -111.95680351 60.41785233 -110.89253235 59.82394409 C-107.67383621 58.02695308 -104.45605607 56.2283277 -101.23828125 54.4296875 C-100.14487427 53.81955811 -99.05146729 53.20942871 -97.92492676 52.58081055 C-90.6343857 48.50371255 -83.39291098 44.35064754 -76.1875 40.125 C-74.54044067 39.16037842 -74.54044067 39.16037842 -72.86010742 38.17626953 C-71.99232666 37.66692871 -71.1245459 37.15758789 -70.23046875 36.6328125 C-63.51539 32.70522611 -56.75949038 28.85036314 -50 25 C-38.94185994 18.69986659 -27.93214685 12.32116418 -16.94921875 5.890625 C-15.6660376 5.1471582 -15.6660376 5.1471582 -14.35693359 4.38867188 C-12.87508268 3.51558632 -11.40663474 2.61890587 -9.95947266 1.68945312 C-6.09806285 -0.74145862 -4.35044947 -1.26618163 0 0 Z " fill="#F0F1F1" transform="translate(123,13)"/>
<path d="M0 0 C0.5625381 16.44594888 0.98472133 32.88874794 1.24349213 49.34201241 C1.36688745 56.98340839 1.53478651 64.61880625 1.81054688 72.25634766 C2.05102011 78.91978689 2.20486113 85.57888559 2.25812387 92.24654281 C2.28924798 95.77473637 2.36129595 99.29052627 2.53752136 102.81470108 C3.39157989 120.57091337 3.39157989 120.57091337 0 128 C-5.79621533 134.2563739 -13.43315966 137.64004514 -21.21184158 140.82719231 C-24.73558732 142.30941659 -27.86378464 144.12154498 -31.1171875 146.12109375 C-33.03610652 147.22717308 -34.95536872 148.33265727 -36.875 149.4375 C-39.05990538 150.69659802 -41.24480092 151.95571311 -43.4296875 153.21484375 C-44.51475586 153.83987793 -45.59982422 154.46491211 -46.71777344 155.10888672 C-52.14659943 158.23680149 -57.57318635 161.36859566 -63 164.5 C-65.14191898 165.73569114 -67.28384609 166.97136817 -69.42578125 168.20703125 C-73.40462432 170.50249458 -77.38330773 172.79823414 -81.36178589 175.09432983 C-83.15066918 176.12673478 -84.93958717 177.15907956 -86.72851562 178.19140625 C-88.97337636 179.48685948 -91.2181719 180.7824257 -93.46289062 182.078125 C-95.44780366 183.22350919 -97.43571049 184.36372852 -99.42724609 185.49755859 C-101.00208438 186.41723546 -102.5581982 187.3713009 -104.07666016 188.38134766 C-105.86328125 189.55078125 -105.86328125 189.55078125 -109 191 C-113.1676735 189.94376736 -116.66429308 188.21425238 -120.359375 186.05078125 C-121.37942627 185.4575708 -122.39947754 184.86436035 -123.45043945 184.25317383 C-124.53929443 183.61275146 -125.62814941 182.9723291 -126.75 182.3125 C-127.90354565 181.63962746 -129.05744228 180.96735629 -130.21166992 180.2956543 C-132.6110795 178.89866858 -135.0089588 177.49910919 -137.40576172 176.09765625 C-143.02801621 172.81290539 -148.67097729 169.56400552 -154.3125 166.3125 C-155.37742676 165.69793945 -156.44235352 165.08337891 -157.53955078 164.45019531 C-167.67553154 158.60281238 -177.83353838 152.79419509 -188 147 C-188 146.34 -188 145.68 -188 145 C-175.625 144.505 -175.625 144.505 -163 144 C-162.67 133.11 -162.34 122.22 -162 111 C-160.35 112.65 -158.7 114.3 -157 116 C-153.49337515 118.3377499 -152.12370255 118.3298962 -148 118 C-145.21433941 117.08742694 -145.21433941 117.08742694 -143 116 C-142.7826186 119.18826055 -142.63976838 121.34407337 -144.19921875 124.18359375 C-146 126 -146 126 -148.375 126.42578125 C-149.24125 126.38839844 -150.1075 126.35101563 -151 126.3125 C-152.299375 126.27576172 -152.299375 126.27576172 -153.625 126.23828125 C-156 126 -156 126 -159 125 C-159 126.32 -159 127.64 -159 129 C-156.93816367 129.08150744 -154.87538651 129.1394194 -152.8125 129.1875 C-151.66394531 129.22230469 -150.51539063 129.25710937 -149.33203125 129.29296875 C-145.55537494 128.96090635 -143.88195562 128.45389312 -141 126 C-137.07030217 119.67604918 -137.45127943 112.830577 -137.3125 105.5625 C-137.27833984 104.35400391 -137.24417969 103.14550781 -137.20898438 101.90039062 C-137.12690165 98.93368651 -137.05761985 95.96726324 -137 93 C-135.68 93 -134.36 93 -133 93 C-133 105.21 -133 117.42 -133 130 C-131.35 130 -129.7 130 -128 130 C-128 125.38 -128 120.76 -128 116 C-126.68 116.66 -125.36 117.32 -124 118 C-117.35284699 118.54484861 -115.73152177 117.8849379 -109 115 C-109 124.9 -109 134.8 -109 145 C-92.83 144.67 -76.66 144.34 -60 144 C-59.67 136.08 -59.34 128.16 -59 120 C-56.525 119.505 -56.525 119.505 -54 119 C-53.67 118.01 -53.34 117.02 -53 116 C-53 116.99 -53 117.98 -53 119 C-45.74 119 -38.48 119 -31 119 C-31 117.68 -31 116.36 -31 115 C-35.95 115 -40.9 115 -46 115 C-45.13375 114.01 -44.2675 113.02 -43.375 112 C-34.98866638 102.35711435 -34.98866638 102.35711435 -32.70703125 90.16015625 C-32.85200336 87.77454931 -32.85200336 87.77454931 -34.875 85.5 C-38.72984549 82.7789326 -41.27370293 82.75553636 -46 83 C-48.37181245 83.59980252 -48.37181245 83.59980252 -50 85 C-50.80528889 87.05000871 -50.80528889 87.05000871 -51 89 C-50.01 88.34 -49.02 87.68 -48 87 C-45.84375 86.69921875 -45.84375 86.69921875 -43.5 86.6875 C-42.7265625 86.67074219 -41.953125 86.65398437 -41.15625 86.63671875 C-38.4723404 87.08889917 -37.59546763 87.82206006 -36 90 C-35.8125 93.1875 -35.8125 93.1875 -36 96 C-36.66 96 -37.32 96 -38 96 C-38 95.01 -38 94.02 -38 93 C-45.92 93.495 -45.92 93.495 -54 94 C-54 93.34 -54 92.68 -54 92 C-55.98 92 -57.96 92 -60 92 C-59.67 75.83 -59.34 59.66 -59 43 C-66.92 43 -74.84 43 -83 43 C-83 44.65 -83 46.3 -83 48 C-83.33 48 -83.66 48 -84 48 C-84.53908803 44.81097926 -84.82141582 43.05585445 -84 40 C-81.19498335 37.01090895 -77.87084258 35.04035385 -74.375 32.9375 C-73.47136719 32.34517578 -72.56773437 31.75285156 -71.63671875 31.14257812 C-64.99976151 26.98115749 -64.99976151 26.98115749 -60.4765625 27.06640625 C-58 28 -58 28 -56 29 C-52.94066593 29.42073356 -50.05449504 29.47561341 -47 29 C-43.76430789 26.52159753 -41.23320539 23.92383532 -40 20 C-40.23203125 18.13988281 -40.23203125 18.13988281 -40.46875 16.2421875 C-40.48974166 13.47724171 -40.34826871 12.39172491 -38.48950195 10.30102539 C-36.33453128 8.68550924 -34.13571746 7.29951711 -31.8125 5.9375 C-31.04357422 5.44056641 -30.27464844 4.94363281 -29.48242188 4.43164062 C-23.86067185 0.96207988 -23.86067185 0.96207988 -20.07421875 1.12890625 C-18.69635013 1.70755917 -17.33667083 2.33166458 -16 3 C-13.69589956 3.23604169 -13.69589956 3.23604169 -11.125 3.25 C-10.26132813 3.27578125 -9.39765625 3.3015625 -8.5078125 3.328125 C-4.99441707 2.8684284 -3.37546569 0 0 0 Z " fill="#F0F1F1" transform="translate(230,75)"/>
<path d="M0 0 C2.47167969 1.04711914 2.47167969 1.04711914 4.921875 2.53515625 C6.31575439 3.36648071 6.31575439 3.36648071 7.73779297 4.21459961 C8.73182129 4.82440674 9.72584961 5.43421387 10.75 6.0625 C12.91352647 7.35766667 15.07760792 8.65190663 17.2421875 9.9453125 C18.35819336 10.61723633 19.47419922 11.28916016 20.62402344 11.98144531 C26.00384799 15.19813532 31.43934597 18.31640645 36.875 21.4375 C39.06005495 22.69633843 41.24494995 23.95545455 43.4296875 25.21484375 C44.51475586 25.83987793 45.59982422 26.46491211 46.71777344 27.10888672 C53.22217941 30.85651605 59.72375795 34.60904961 66.2253418 38.36157227 C71.77686292 41.56532462 77.33020797 44.76584577 82.88671875 47.9609375 C84.59504883 48.94416992 84.59504883 48.94416992 86.33789062 49.94726562 C88.47787488 51.1788484 90.61844226 52.40941886 92.75976562 53.63867188 C94.71952018 54.76709268 96.6620786 55.92607637 98.5834198 57.11872864 C101.17411789 58.54524458 103.07256857 59.38742933 105.81794739 60.22062683 C110.47587571 61.8770716 114.15014566 63.85221933 117 68 C119.85655097 77.21517543 119.18415554 87.48424677 119.0807457 97.05523181 C119.05627051 100.16178144 119.07946023 103.26723756 119.10272312 106.37373978 C119.15728653 113.70732563 119.1363986 121.03796537 119.06542969 128.37133789 C118.99349478 135.91684682 119.03747863 143.45521774 119.14066029 151.00020355 C119.22605319 157.49787467 119.24477531 163.99336366 119.20955944 170.49150139 C119.18886954 174.36414376 119.19139612 178.23291669 119.25588989 182.10516167 C119.60170428 205.50582636 119.60170428 205.50582636 115.33077812 211.24181938 C111.37688225 214.72439021 107.04876853 216.6517711 102.07774925 218.26900864 C98.96321118 219.36476186 96.369648 220.9941064 93.56640625 222.73046875 C91.56553379 223.88355831 89.56422606 225.03589289 87.5625 226.1875 C85.31379049 227.4830528 83.06509292 228.77862632 80.81640625 230.07421875 C79.12281982 231.0494751 79.12281982 231.0494751 77.39501953 232.04443359 C70.8480988 235.81552773 64.30468935 239.59271076 57.76098633 243.36938477 C52.29578707 246.52319079 46.82908972 249.67434329 41.359375 252.8203125 C40.26463867 253.4505835 39.16990234 254.08085449 38.04199219 254.73022461 C35.86637121 255.98244905 33.68995231 257.2332883 31.51269531 258.48266602 C26.19979745 261.53997366 20.92017249 264.63908973 15.6875 267.83203125 C14.18558105 268.74251221 14.18558105 268.74251221 12.65332031 269.67138672 C10.77070751 270.81659535 8.89457925 271.9725597 7.02636719 273.14111328 C5.76808105 273.90464111 5.76808105 273.90464111 4.484375 274.68359375 C3.75959961 275.13275146 3.03482422 275.58190918 2.28808594 276.04467773 C-0.68449546 277.28579073 -2.80145291 277.3203706 -6 277 C-8.47167969 275.95288086 -8.47167969 275.95288086 -10.921875 274.46484375 C-11.85112793 273.91062744 -12.78038086 273.35641113 -13.73779297 272.78540039 C-14.73182129 272.17559326 -15.72584961 271.56578613 -16.75 270.9375 C-18.91352647 269.64233333 -21.07760792 268.34809337 -23.2421875 267.0546875 C-24.91619629 266.04680176 -24.91619629 266.04680176 -26.62402344 265.01855469 C-32.00384799 261.80186468 -37.43934597 258.68359355 -42.875 255.5625 C-45.06005495 254.30366157 -47.24494995 253.04454545 -49.4296875 251.78515625 C-51.05729004 250.84760498 -51.05729004 250.84760498 -52.71777344 249.89111328 C-59.22217941 246.14348395 -65.72375795 242.39095039 -72.2253418 238.63842773 C-77.77686292 235.43467538 -83.33020797 232.23415423 -88.88671875 229.0390625 C-90.59504883 228.05583008 -90.59504883 228.05583008 -92.33789062 227.05273438 C-94.47787488 225.8211516 -96.61844226 224.59058114 -98.75976562 223.36132812 C-100.71952018 222.23290732 -102.6620786 221.07392363 -104.5834198 219.88127136 C-107.17411789 218.45475542 -109.07256857 217.61257067 -111.81794739 216.77937317 C-116.47587571 215.1229284 -120.15014566 213.14778067 -123 209 C-125.85655097 199.78482457 -125.18415554 189.51575323 -125.0807457 179.94476819 C-125.05627051 176.83821856 -125.07946023 173.73276244 -125.10272312 170.62626022 C-125.15728653 163.29267437 -125.1363986 155.96203463 -125.06542969 148.62866211 C-124.99349478 141.08315318 -125.03747863 133.54478226 -125.14066029 125.99979645 C-125.22605319 119.50212533 -125.24477531 113.00663634 -125.20955944 106.50849861 C-125.18886954 102.63585624 -125.19139612 98.76708331 -125.25588989 94.89483833 C-125.60170428 71.49417364 -125.60170428 71.49417364 -121.33077812 65.75818062 C-117.37688225 62.27560979 -113.04876853 60.3482289 -108.07774925 58.73099136 C-104.96321118 57.63523814 -102.369648 56.0058936 -99.56640625 54.26953125 C-97.56553379 53.11644169 -95.56422606 51.96410711 -93.5625 50.8125 C-91.31379049 49.5169472 -89.06509292 48.22137368 -86.81640625 46.92578125 C-85.68734863 46.27561035 -84.55829102 45.62543945 -83.39501953 44.95556641 C-76.8480988 41.18447227 -70.30468935 37.40728924 -63.76098633 33.63061523 C-58.29578707 30.47680921 -52.82908972 27.32565671 -47.359375 24.1796875 C-46.26463867 23.5494165 -45.16990234 22.91914551 -44.04199219 22.26977539 C-41.86637121 21.01755095 -39.68995231 19.7667117 -37.51269531 18.51733398 C-32.19979745 15.46002634 -26.92017249 12.36091027 -21.6875 9.16796875 C-20.6862207 8.56098145 -19.68494141 7.95399414 -18.65332031 7.32861328 C-16.77070751 6.18340465 -14.89457925 5.0274403 -13.02636719 3.85888672 C-12.18750977 3.34986816 -11.34865234 2.84084961 -10.484375 2.31640625 C-9.75959961 1.86724854 -9.03482422 1.41809082 -8.28808594 0.95532227 C-5.31550454 -0.28579073 -3.19854709 -0.3203706 0 0 Z M-10.6015625 14.97265625 C-12.27629639 15.93957397 -12.27629639 15.93957397 -13.98486328 16.92602539 C-15.19831919 17.63805238 -16.411696 18.35021418 -17.625 19.0625 C-18.88607857 19.79436168 -20.14764197 20.52538852 -21.40966797 21.25561523 C-24.00875972 22.76108355 -26.60508889 24.27115439 -29.19921875 25.78515625 C-33.76879358 28.4508379 -38.35382702 31.08947078 -42.93896484 33.72827148 C-46.15115891 35.57755992 -49.36108488 37.43072523 -52.5703125 39.28515625 C-60.11054291 43.64216686 -67.65416159 47.99329599 -75.19775391 52.34448242 C-80.2961932 55.2855316 -85.39421025 58.22730501 -90.49072266 61.17169189 C-92.91047665 62.56958601 -95.33047263 63.96706089 -97.75048828 65.36450195 C-99.46801052 66.35652324 -101.18518052 67.34915429 -102.90234375 68.34179688 C-103.93488281 68.93798828 -104.96742187 69.53417969 -106.03125 70.1484375 C-106.94455078 70.67614746 -107.85785156 71.20385742 -108.79882812 71.74755859 C-110.17988691 72.53336511 -111.57878495 73.28939248 -113 74 C-113.35094079 90.66354095 -113.61516453 107.32587778 -113.77718258 123.99222469 C-113.85442362 131.73150838 -113.959644 139.46849208 -114.1315918 147.20629883 C-114.28145538 153.95353245 -114.37795035 160.69910067 -114.41132742 167.44795233 C-114.4308334 171.02011853 -114.47638047 174.58752252 -114.58595085 178.15815544 C-115.70865681 192.18721894 -115.70865681 192.18721894 -111.55665398 205.0448761 C-108.10121572 208.20189272 -104.29928033 209.90258136 -99.88570023 211.33208275 C-96.94767116 212.37273612 -94.40344107 213.99995446 -91.76171875 215.6328125 C-89.73774693 216.79820941 -87.71298949 217.96224284 -85.6875 219.125 C-83.42055224 220.42965157 -81.15362576 221.73434013 -78.88671875 223.0390625 C-77.74509277 223.69551758 -76.6034668 224.35197266 -75.42724609 225.02832031 C-69.94844191 228.1802524 -64.47442996 231.34047896 -59 234.5 C-56.8463621 235.74220126 -54.69271624 236.98438871 -52.5390625 238.2265625 C-46.93637363 241.45868846 -41.33639656 244.69548537 -35.73730469 247.93383789 C-32.46618324 249.8223571 -29.19031896 251.70243899 -25.9140625 253.58203125 C-22.2568082 255.68351791 -18.62677809 257.81918261 -15.0234375 260.01171875 C-14.28947754 260.4495166 -13.55551758 260.88731445 -12.79931641 261.33837891 C-11.48690348 262.12232439 -10.18340635 262.92151637 -8.89208984 263.73974609 C-6.99236967 264.9206656 -6.99236967 264.9206656 -4 266 C0.07505898 264.94590887 3.49344449 263.30703262 7.09765625 261.1640625 C8.53044922 260.31908203 8.53044922 260.31908203 9.9921875 259.45703125 C11.00539063 258.85246094 12.01859375 258.24789062 13.0625 257.625 C15.22998181 256.34552892 17.39795935 255.06689728 19.56640625 253.7890625 C20.65066895 253.1487207 21.73493164 252.50837891 22.85205078 251.84863281 C27.37789862 249.1908292 31.93634415 246.59216707 36.5 244 C44.92585969 239.20360614 53.30725186 234.33425516 61.67626953 229.43945312 C67.09194901 226.27398106 72.51409892 223.12026369 77.94921875 219.98828125 C78.52913071 219.6541069 79.10904266 219.31993256 79.70652771 218.97563171 C82.50225421 217.36522464 85.29890944 215.75644885 88.09643555 214.14916992 C89.11390869 213.56369385 90.13138184 212.97821777 91.1796875 212.375 C92.06382324 211.86710938 92.94795898 211.35921875 93.85888672 210.8359375 C95.41373779 209.92714844 95.41373779 209.92714844 97 209 C97.80993156 208.65192984 98.61986313 208.30385967 99.45433807 207.94524193 C104.89740084 205.36404605 104.89740084 205.36404605 107.9101429 200.40880203 C108.23464673 197.09087136 108.2371957 193.90140198 108.13525391 190.56884766 C108.13671417 189.31951447 108.13817444 188.07018127 108.13967896 186.7829895 C108.13391561 183.36783949 108.08390636 179.95878358 108.01393938 176.54471254 C107.95129083 172.97346364 107.94554192 169.40212743 107.9336853 165.83041382 C107.90264179 159.07246779 107.82063815 152.31614552 107.72019041 145.55891359 C107.60829286 137.86386676 107.55340406 130.16874105 107.50323606 122.47308278 C107.398797 106.64778243 107.22298575 90.82410084 107 75 C103.75016865 76.08784968 103.75016865 76.08784968 101 78 C99.37860563 78.12494616 97.75115878 78.17571624 96.125 78.1875 C95.24070313 78.20167969 94.35640625 78.21585937 93.4453125 78.23046875 C91 78 91 78 88 76 C82.49147818 76.18361739 78.61168406 78.64528585 74.125 81.5625 C73.09246094 82.17061523 73.09246094 82.17061523 72.0390625 82.79101562 C70.05963259 84.07332488 68.50955381 85.18457408 67 87 C66.46414222 89.81368519 66.75312942 92.09854459 67 95 C65.62971719 98.99260067 63.53700857 101.64199428 60 104 C57.87890625 104.265625 57.87890625 104.265625 55.5625 104.25 C54.80066406 104.25515625 54.03882813 104.2603125 53.25390625 104.265625 C51 104 51 104 49.08984375 102.921875 C45.93872497 101.53184877 44.3124637 102.04082235 41 103 C37.74526435 104.59522685 34.73045707 106.47312114 31.6875 108.4375 C30.45290039 109.16356445 30.45290039 109.16356445 29.19335938 109.90429688 C24.6114124 112.81943092 24.6114124 112.81943092 22.28295898 117.53564453 C22.00054706 120.19252022 22.00054706 120.19252022 22.04150391 122.75024414 C21.98377749 125.87935547 20.99612974 127.63421661 19 130 C14.78763256 132.5382214 10.80121904 132.70303564 6 132 C2.52939832 129.93240751 0.22274607 127.89055567 -1 124 C-1.49512048 118.6526988 -0.49461366 115.67328681 2 111 C0.21180836 108.37261708 -1.58114227 105.74851693 -3.375 103.125 C-3.88289063 102.37863281 -4.39078125 101.63226563 -4.9140625 100.86328125 C-5.40390625 100.14785156 -5.89375 99.43242188 -6.3984375 98.6953125 C-6.84880371 98.03547363 -7.29916992 97.37563477 -7.76318359 96.69580078 C-9.03042186 94.86649295 -9.03042186 94.86649295 -11 93 C-13.52000288 92.89902427 -15.97581087 93.06866902 -18.4921875 93.22265625 C-21 93 -21 93 -23.0703125 91.43359375 C-24.84316873 89.77187575 -24.84316873 89.77187575 -26.78613281 90.22119141 C-31.78279752 91.97895061 -36.1619391 95.13581079 -40.625 97.9375 C-41.6871875 98.56462891 -42.749375 99.19175781 -43.84375 99.83789062 C-49.52587842 103.26031122 -49.52587842 103.26031122 -53.06958008 108.62719727 C-53.60265566 111.26686704 -53.60265566 111.26686704 -53.72436523 113.796875 C-54 116 -54 116 -56.4375 119.0625 C-60.62876742 122.23150707 -63.87043341 122.17388361 -69 122 C-69.94568848 121.76224854 -70.89137695 121.52449707 -71.86572266 121.27954102 C-75.98844383 120.91184233 -77.46681979 122.0656976 -80.8359375 124.40234375 C-81.89941406 125.12744141 -82.96289062 125.85253906 -84.05859375 126.59960938 C-85.16432412 127.37853499 -86.26978966 128.15783669 -87.375 128.9375 C-88.50281752 129.71447334 -89.63171444 130.48988236 -90.76171875 131.26367188 C-93.51882383 133.16065443 -96.26388113 135.07292809 -99 137 C-99 135.68 -99 134.36 -99 133 C-96.99633789 131.34008789 -96.99633789 131.34008789 -94.22265625 129.72265625 C-93.23458984 129.12646484 -92.24652344 128.53027344 -91.22851562 127.91601562 C-89.1224505 126.68303857 -87.01568207 125.45126204 -84.90820312 124.22070312 C-83.91884766 123.62322266 -82.92949219 123.02574219 -81.91015625 122.41015625 C-80.53549194 121.60783569 -80.53549194 121.60783569 -79.13305664 120.78930664 C-76.79526307 119.15392531 -76.79526307 119.15392531 -76.19042969 116.42944336 C-76.0057074 114.0728132 -76.03397297 111.85684744 -76.1875 109.5 C-76.24009133 105.99391157 -76.07375386 105.11800618 -74.125 102 C-70.40942767 98.50299074 -67.42158974 98.67780062 -62.48828125 98.69921875 C-59.07955508 99.11126257 -57.31358174 100.53217948 -55 103 C-49.30650455 100.86143963 -44.38117977 97.79285811 -39.25 94.5625 C-38.27933594 93.99595703 -37.30867188 93.42941406 -36.30859375 92.84570312 C-30.96656135 89.56003201 -30.96656135 89.56003201 -28.20678711 84.18359375 C-27.93322172 81.25580208 -27.93322172 81.25580208 -28.04760742 78.44555664 C-28 76 -28 76 -26.0625 72.875 C-22.98289346 70.07535769 -21.20242653 69.84274797 -17.125 69.8125 C-16.26132813 69.79832031 -15.39765625 69.78414062 -14.5078125 69.76953125 C-11.82907355 70.01570819 -10.26514329 70.57563042 -8 72 C-4.8470525 75.94118438 -4.46744681 79.02950357 -5 84 C-5.53625 84.86625 -6.0725 85.7325 -6.625 86.625 C-7.305625 87.800625 -7.305625 87.800625 -8 89 C-6.67624232 93.78456208 -3.73601277 97.7787816 -0.9375 101.8125 C-0.27717773 102.85180664 -0.27717773 102.85180664 0.39648438 103.91210938 C1.81751337 105.9407232 3.02749774 107.49606789 5 109 C7.44835979 109.4208651 9.50058685 109.37313353 11.96533203 109.10009766 C14.91810107 108.95483304 16.59354189 110.41861324 19 112 C22.32532881 111.56578568 24.71630124 110.09856699 27.51171875 108.3125 C28.35154297 107.77882813 29.19136719 107.24515625 30.05664062 106.6953125 C30.92482422 106.13585937 31.79300781 105.57640625 32.6875 105 C33.56728516 104.44054687 34.44707031 103.88109375 35.35351562 103.3046875 C39.3800212 100.91634729 39.3800212 100.91634729 43 98 C43.10563195 96.25120432 43.18446365 94.50075682 43.25 92.75 C43.73207364 86.56338824 43.73207364 86.56338824 46.5 83.875 C47.325 83.25625 48.15 82.6375 49 82 C49.33 81.67 49.66 81.34 50 81 C55.75325803 80.38188137 59.06309834 80.98300454 64 84 C68.60853705 82.63667597 72.73163946 80.05006762 76.8125 77.5625 C77.85180664 76.99885742 77.85180664 76.99885742 78.91210938 76.42382812 C81.06473626 75.08559407 82.49902949 74.05270847 84 72 C84.59683735 68.25786243 84.42912127 64.75429283 84 61 C83.36835938 60.64921387 82.73671875 60.29842773 82.0859375 59.93701172 C68.35388538 52.30177308 54.70690649 44.54435524 41.15234375 36.59765625 C33.42761783 32.07100944 25.66586235 27.60878545 17.90258789 23.14868164 C16.88543701 22.5633667 15.86828613 21.97805176 14.8203125 21.375 C13.84352539 20.81425781 12.86673828 20.25351562 11.86035156 19.67578125 C8.23923465 17.55429384 4.68776785 15.32679338 1.15185547 13.06640625 C-3.52483076 10.74875644 -6.47696076 12.56950147 -10.6015625 14.97265625 Z " fill="#454545" transform="translate(123,0)"/>
<path d="M0 0 C7.92 0 15.84 0 24 0 C24 15.84 24 31.68 24 48 C29.11069824 49.70356608 32.67549951 50.25599517 37.875 50.125 C38.90753906 50.11146484 38.90753906 50.11146484 39.9609375 50.09765625 C41.64077838 50.07432513 43.32043746 50.03846326 45 50 C45 50.99 45 51.98 45 53 C45.66 53 46.32 53 47 53 C46.1395861 48.66770285 46.1395861 48.66770285 44 45 C42.5444063 44.90141397 41.08392081 44.87027857 39.625 44.875 C38.83351563 44.87242187 38.04203125 44.86984375 37.2265625 44.8671875 C34.82656504 44.91382334 34.82656504 44.91382334 32 46 C32.25 43.625 32.25 43.625 33 41 C36.29828872 38.33599758 39.93015901 38.57898197 44 39 C49.53846154 42.07692308 49.53846154 42.07692308 51 45 C51.82495852 51.51852466 50.85578054 56.6565561 47 62 C44.1234446 65.16866688 41.12183739 68.0618001 38 71 C44.93 71.495 44.93 71.495 52 72 C52 73.32 52 74.64 52 76 C50.9941687 75.99214478 50.9941687 75.99214478 49.96801758 75.98413086 C46.916188 75.96328395 43.86437344 75.95031531 40.8125 75.9375 C39.75740234 75.92912109 38.70230469 75.92074219 37.61523438 75.91210938 C36.59365234 75.90888672 35.57207031 75.90566406 34.51953125 75.90234375 C33.58214111 75.89710693 32.64475098 75.89187012 31.67895508 75.88647461 C29.01950523 75.99917343 26.59079427 76.40623351 24 77 C24.00523682 77.72179443 24.01047363 78.44358887 24.01586914 79.18725586 C24.03657358 82.43732849 24.04963918 85.68738728 24.0625 88.9375 C24.07087891 90.07380859 24.07925781 91.21011719 24.08789062 92.38085938 C24.09111328 93.46044922 24.09433594 94.54003906 24.09765625 95.65234375 C24.10289307 96.65257568 24.10812988 97.65280762 24.11352539 98.68334961 C24 101 24 101 23 102 C21.4651703 102.09319449 19.92607918 102.117458 18.38842773 102.11352539 C17.40748642 102.11344986 16.4265451 102.11337433 15.4158783 102.11329651 C14.3492244 102.10813522 13.2825705 102.10297394 12.18359375 102.09765625 C10.55430687 102.09553383 10.55430687 102.09553383 8.8921051 102.09336853 C5.40720925 102.08775048 1.92237658 102.07519492 -1.5625 102.0625 C-3.91861887 102.05748733 -6.27473874 102.05292402 -8.63085938 102.04882812 C-14.42061711 102.03862411 -20.21023745 102.01905224 -26 102 C-26.33 92.43 -26.66 82.86 -27 73 C-28.98 73.99 -30.96 74.98 -33 76 C-37.24565787 76.69149944 -40.34796746 76.43468836 -44 74 C-44.33 78.29 -44.66 82.58 -45 87 C-46.32 87 -47.64 87 -49 87 C-49 74.46 -49 61.92 -49 49 C-47.68 49 -46.36 49 -45 49 C-44.67 49.66 -44.34 50.32 -44 51 C-43.01 50.34 -42.02 49.68 -41 49 C-38.84375 48.76953125 -38.84375 48.76953125 -36.5 48.8125 C-35.7265625 48.81894531 -34.953125 48.82539063 -34.15625 48.83203125 C-32 49 -32 49 -29 50 C-28.67 34.82 -28.34 19.64 -28 4 C-27.34 4 -26.68 4 -26 4 C-24.81640625 5.6796875 -24.81640625 5.6796875 -23.5625 7.875 C-21.82669206 10.91130355 -21.01345998 11.99102668 -18 14 C-13.81385326 14.60362041 -10.06563786 14.41698873 -6.125 12.875 C-2.00446575 9.23923449 -1.05750897 5.28754486 0 0 Z " fill="#EFEFEF" transform="translate(147,118)"/>
<path d="M0 0 C0.78246094 -0.02578125 1.56492188 -0.0515625 2.37109375 -0.078125 C5.04181509 0.32176911 5.88227439 1.19699122 7.5625 3.25 C7.8925 2.26 8.2225 1.27 8.5625 0.25 C17.13392857 0.10714286 17.13392857 0.10714286 20.5625 1.25 C19.5625 3.25 18.5625 5.25 17.5625 7.25 C16.16073525 17.64527667 16.24844494 28.26200499 16.01025391 38.73461914 C15.95880041 40.94169098 15.90157566 43.14855612 15.84375 45.35546875 C15.81345703 46.65637451 15.78316406 47.95728027 15.75195312 49.29760742 C15.5625 52.25 15.5625 52.25 14.5625 53.25 C-3.79064254 56.97984594 -16.36601815 53.28920111 -31.8828125 43.34765625 C-33.40654847 42.32324798 -34.92709425 41.29396268 -36.4375 40.25 C-35.4475 39.755 -35.4475 39.755 -34.4375 39.25 C-34.44273682 38.13439697 -34.44797363 37.01879395 -34.45336914 35.86938477 C-34.47141775 31.74520667 -34.48293149 27.62103209 -34.49243164 23.49682617 C-34.49747218 21.70905979 -34.50430454 19.92129755 -34.51293945 18.13354492 C-34.5250173 15.56948832 -34.53073094 13.00548603 -34.53515625 10.44140625 C-34.54031754 9.6372377 -34.54547882 8.83306915 -34.55079651 8.00453186 C-34.55099215 6.08598285 -34.49951983 4.16754632 -34.4375 2.25 C-33.4375 1.25 -33.4375 1.25 -30.87719727 1.15234375 C-29.76401123 1.16394531 -28.6508252 1.17554688 -27.50390625 1.1875 C-25.6950293 1.19910156 -25.6950293 1.19910156 -23.84960938 1.2109375 C-21.28710897 1.23693953 -18.72460897 1.26298108 -16.16210938 1.2890625 C-14.35129883 1.30066406 -14.35129883 1.30066406 -12.50390625 1.3125 C-10.8324353 1.32990234 -10.8324353 1.32990234 -9.12719727 1.34765625 C-5.88235666 1.22984412 -3.3412108 0.06583667 0 0 Z " fill="#F0F0F0" transform="translate(52.4375,166.75)"/>
<path d="M0 0 C4.20475482 1.6997945 6.20472472 3.8425204 8 8 C8.42911003 12.00502695 8.51451702 14.16885712 6.375 17.625 C5.92125 18.40875 5.4675 19.1925 5 20 C6.94203842 26.76697858 11.89419783 34.17048582 17 39 C19.718681 39.88057907 21.24917067 39.78866125 24.03125 39.2890625 C26.99261421 38.85425903 28.58900877 40.41563433 31 42 C34.30649144 41.56484382 36.69209433 40.11833316 39.4765625 38.34765625 C40.311875 37.81849609 41.1471875 37.28933594 42.0078125 36.74414062 C42.87148437 36.18919922 43.73515625 35.63425781 44.625 35.0625 C45.93210938 34.23588867 45.93210938 34.23588867 47.265625 33.39257812 C51.88239781 30.51434631 51.88239781 30.51434631 56 27 C56.99 28.98 57.98 30.96 59 33 C58.01773438 33.40089844 57.03546875 33.80179688 56.0234375 34.21484375 C43.50685876 39.27297208 43.50685876 39.27297208 34.8828125 48.66796875 C34.70096466 51.23435932 34.70096466 51.23435932 34.91015625 53.734375 C35.05469338 57.37922437 33.32010763 59.34844842 31 62 C26.8042381 64.54208635 22.78784968 64.82148547 18 64 C14.85066709 62.32878951 12.73327028 59.99991402 10.625 57.125 C8.88649835 51.21409439 10.1966349 47.2516866 13 42 C11.26853283 39.34159929 9.51187354 36.70082718 7.75 34.0625 C7.01330078 32.93038086 7.01330078 32.93038086 6.26171875 31.77539062 C5.77832031 31.05673828 5.29492188 30.33808594 4.796875 29.59765625 C4.13703613 28.60004272 4.13703613 28.60004272 3.46386719 27.58227539 C1.67478502 25.64847927 0.58604424 25.33823679 -2 25 C-3.155 25.04125 -4.31 25.0825 -5.5 25.125 C-9.36448679 24.98698261 -10.10628167 24.29501799 -13 22 C-16.56160924 22.41932437 -19.00248464 24.15986733 -21.9140625 26.16015625 C-22.83960937 26.78857422 -23.76515625 27.41699219 -24.71875 28.06445312 C-26.15734375 29.05348633 -26.15734375 29.05348633 -27.625 30.0625 C-29.5310185 31.37002869 -31.43973866 32.6736307 -33.3515625 33.97265625 C-34.19541504 34.55281494 -35.03926758 35.13297363 -35.90869141 35.73071289 C-38 37 -38 37 -40 37 C-39.938125 38.03125 -39.87625 39.0625 -39.8125 40.125 C-40.01568148 44.32408396 -40.75953926 46.47927597 -43 50 C-47.37474779 53.96461519 -51.23260375 54.19550496 -57 54 C-58.43424316 53.65014038 -58.43424316 53.65014038 -59.89746094 53.29321289 C-63.86747169 52.91801751 -65.13148862 53.87533584 -68.328125 56.18359375 C-69.29234375 56.86357422 -70.2565625 57.54355469 -71.25 58.24414062 C-72.24 58.96794922 -73.23 59.69175781 -74.25 60.4375 C-76.2317755 61.85650208 -78.2160246 63.27205805 -80.203125 64.68359375 C-81.07614258 65.31837646 -81.94916016 65.95315918 -82.84863281 66.60717773 C-85 68 -85 68 -87 68 C-87.33 66.68 -87.66 65.36 -88 64 C-86.35770014 62.89871819 -84.71502262 61.79799584 -83.07055664 60.69995117 C-81.68581127 59.77205258 -80.30479074 58.83857186 -78.92749023 57.8996582 C-75.38577343 55.50249241 -71.95569371 53.47569386 -68.0625 51.6875 C-66.16097033 50.71014316 -66.16097033 50.71014316 -65 49 C-64.66503876 45.64157283 -64.81809582 42.47875239 -65.04296875 39.11328125 C-64.99777554 35.83882752 -64.70462998 34.69907713 -62.625 32.25 C-58.49991237 28.7142106 -55.78675942 28.67621523 -50.48828125 28.69921875 C-47.07955508 29.11126257 -45.31358174 30.53217948 -43 33 C-37.53677942 30.92671871 -32.72660302 28.09865199 -27.75 25.0625 C-26.82703125 24.54365234 -25.9040625 24.02480469 -24.953125 23.49023438 C-19.81592233 20.40539053 -19.81592233 20.40539053 -17.25561523 15.23242188 C-16.99708381 12.31633075 -16.99708381 12.31633075 -17.11401367 9.51196289 C-16.92592238 5.36791296 -14.96366898 3.74681516 -12 1 C-8.31064308 -0.84467846 -4.03564658 -0.35009552 0 0 Z " fill="#1A5287" transform="translate(111,69)"/>
<path d="M0 0 C1.83935547 0.8112793 1.83935547 0.8112793 4.83935547 2.8112793 C6.42706064 2.72523234 8.01174997 2.57220483 9.58935547 2.3737793 C12.87206685 2.30697994 14.29614256 2.35506533 16.83935547 4.4909668 C18.67091392 6.85400426 20.26939981 9.26726356 21.83935547 11.8112793 C22.9830665 13.50021842 24.12878445 15.18780088 25.27685547 16.8737793 C26.13461494 18.18393411 26.9901894 19.49553847 27.83935547 20.8112793 C27.36498047 21.6981543 26.89060547 22.5850293 26.40185547 23.4987793 C25.04198398 26.38170685 24.29875161 28.68738553 23.83935547 31.8112793 C23.17935547 30.8212793 22.51935547 29.8312793 21.83935547 28.8112793 C19.62437746 28.33529203 19.62437746 28.33529203 17.02246094 28.37890625 C16.0215744 28.35911209 15.02068787 28.33931793 13.98947144 28.31892395 C12.90610504 28.31253403 11.82273865 28.3061441 10.70654297 28.29956055 C9.59957062 28.28160934 8.49259827 28.26365814 7.3520813 28.24516296 C3.80621179 28.19085325 0.26047844 28.15709761 -3.28564453 28.1237793 C-5.68540315 28.09062452 -8.08514375 28.05613661 -10.48486328 28.02026367 C-16.37666826 27.93511507 -22.26849043 27.86685306 -28.16064453 27.8112793 C-27.04448296 16.87445651 -27.04448296 16.87445651 -23.79394531 12.96435547 C-22.82440918 12.35052002 -21.85487305 11.73668457 -20.85595703 11.10424805 C-19.79763672 10.4165332 -18.73931641 9.72881836 -17.64892578 9.02026367 C-16.53904297 8.35317383 -15.42916016 7.68608398 -14.28564453 6.9987793 C-13.18349609 6.28141602 -12.08134766 5.56405273 -10.94580078 4.82495117 C-2.91424591 -0.25454374 -2.91424591 -0.25454374 0 0 Z " fill="#F0F0F1" transform="translate(97.16064453125,90.188720703125)"/>
<path d="M0 0 C4.73474097 1.6996506 8.96167111 4.13659027 13.3125 6.625 C14.05306641 7.04523438 14.79363281 7.46546875 15.55664062 7.8984375 C17.37269011 8.92948495 19.18656533 9.96436046 21 11 C20.6875 12.875 20.6875 12.875 20 15 C16.76085771 17.15942819 15.75140267 17.27232978 12 17.25 C11.13375 17.25515625 10.2675 17.2603125 9.375 17.265625 C7 17 7 17 4 15 C-1.25691628 15.23347336 -5.02331778 17.35064793 -9.375 20.0625 C-10.33599609 20.59907227 -10.33599609 20.59907227 -11.31640625 21.14648438 C-13.44538711 22.38366106 -13.44538711 22.38366106 -16 25 C-16.49794136 27.79048842 -16.22235229 30.13222562 -16 33 C-17.15587271 36.47376639 -19.2857072 39.17988604 -21.6875 41.9375 C-25.33049237 43.6113073 -29.05992474 43.53412992 -33 43 C-36.71734629 41.56190253 -38.35914891 39.6308241 -40.234375 36.06640625 C-41.60593752 32.36458701 -41.73241266 28.86510839 -41 25 C-38.94161475 21.66399633 -37.2606736 20.1737824 -34 18 C-28.29433644 17.17727323 -24.8763506 18.02000797 -20 21 C-13.13288528 18.92389555 -6.40000781 14.64601736 -1 10 C0.13600042 6.67821306 -0.24263423 4.35940461 -1 1 C-0.67 0.67 -0.34 0.34 0 0 Z " fill="#062855" transform="translate(207,62)"/>
<path d="M0 0 C5.53846154 3.07692308 5.53846154 3.07692308 7 6 C7.82495852 12.51852466 6.85578054 17.6565561 3 23 C0.1234446 26.16866688 -2.87816261 29.0618001 -6 32 C0.93 32.495 0.93 32.495 8 33 C8 34.32 8 35.64 8 37 C0.08 37 -7.84 37 -16 37 C-16 35.68 -16 34.36 -16 33 C-16.804375 33.020625 -17.60875 33.04125 -18.4375 33.0625 C-21 33 -21 33 -22 32 C-22.08631874 30.65732587 -22.10706473 29.31025678 -22.09765625 27.96484375 C-22.09443359 27.15595703 -22.09121094 26.34707031 -22.08789062 25.51367188 C-22.07951172 24.66353516 -22.07113281 23.81339844 -22.0625 22.9375 C-22.05798828 22.08349609 -22.05347656 21.22949219 -22.04882812 20.34960938 C-22.03700373 18.23304337 -22.01906769 16.11651315 -22 14 C-19.69 14 -17.38 14 -15 14 C-14.67 13.01 -14.34 12.02 -14 11 C-9.05 11 -4.1 11 1 11 C1 11.99 1 12.98 1 14 C1.66 14 2.32 14 3 14 C2.1395861 9.66770285 2.1395861 9.66770285 0 6 C-1.4555937 5.90141397 -2.91607919 5.87027857 -4.375 5.875 C-5.56222656 5.87113281 -5.56222656 5.87113281 -6.7734375 5.8671875 C-9.17343496 5.91382334 -9.17343496 5.91382334 -12 7 C-11.75 4.625 -11.75 4.625 -11 2 C-7.70171128 -0.66400242 -4.06984099 -0.42101803 0 0 Z " fill="#EFEFEF" transform="translate(191,157)"/>
<path d="M0 0 C0.7734375 -0.01675781 1.546875 -0.03351563 2.34375 -0.05078125 C4.97015897 0.39171157 5.83557103 1.29064557 7.5 3.3125 C7.83 2.3225 8.16 1.3325 8.5 0.3125 C9.82 0.3125 11.14 0.3125 12.5 0.3125 C12.61690073 4.81227884 12.68748837 9.31166287 12.75 13.8125 C12.80027344 15.71515625 12.80027344 15.71515625 12.8515625 17.65625 C12.92801217 24.99541819 12.74553664 30.19655211 8.5 36.3125 C4.99497168 38.44832181 2.3390029 38.52639137 -1.75 38.4375 C-2.82765625 38.41945312 -3.9053125 38.40140625 -5.015625 38.3828125 C-6.24539062 38.34800781 -6.24539062 38.34800781 -7.5 38.3125 C-7.83 36.6625 -8.16 35.0125 -8.5 33.3125 C-7.66855469 33.35890625 -6.83710937 33.4053125 -5.98046875 33.453125 C-4.89378906 33.48921875 -3.80710937 33.5253125 -2.6875 33.5625 C-1.60855469 33.60890625 -0.52960937 33.6553125 0.58203125 33.703125 C3.58454242 33.59837336 3.58454242 33.59837336 5.375 31.46875 C6.7124333 28.90533618 6.73771545 27.16508538 6.5 24.3125 C5.984375 24.8075 5.46875 25.3025 4.9375 25.8125 C1.53618625 27.90561615 -0.57072743 27.86397685 -4.5 27.3125 C-7.98066539 24.45061957 -11.21218427 21.44434441 -11.8359375 16.82421875 C-11.91928177 10.79842801 -11.71086932 7.00461153 -7.5 2.3125 C-4.40219052 0.24729368 -3.5459519 0.01772976 0 0 Z " fill="#525252" transform="translate(52.5,166.6875)"/>
<path d="M0 0 C0.99 0.66 1.98 1.32 3 2 C3.33 1.34 3.66 0.68 4 0 C5.32 0 6.64 0 8 0 C8.07455949 4.02009457 8.12879358 8.03991733 8.16479492 12.06054688 C8.17981428 13.42617816 8.20023608 14.79176176 8.22631836 16.15722656 C8.26300137 18.12803905 8.27818551 20.09921408 8.29296875 22.0703125 C8.3086792 23.25383301 8.32438965 24.43735352 8.34057617 25.65673828 C7.86825883 30.29323554 6.41316671 33.6751562 3 36.875 C-1.5795435 38.59232881 -6.16003055 38.40527925 -11 38 C-11.66 37.67 -12.32 37.34 -13 37 C-13 35.68 -13 34.36 -13 33 C-12.08476563 33.03480469 -11.16953125 33.06960937 -10.2265625 33.10546875 C-9.03804688 33.13253906 -7.84953125 33.15960938 -6.625 33.1875 C-5.44164063 33.22230469 -4.25828125 33.25710937 -3.0390625 33.29296875 C-2.03617188 33.19628906 -1.03328125 33.09960938 0 33 C2.1519437 29.77208445 2.20086443 28.71599191 2 25 C1.46375 25.33 0.9275 25.66 0.375 26 C-2.68741139 27.28943638 -4.69939439 27.40415579 -8 27 C-11.17496188 24.90741149 -12.88460857 23.17308714 -15 20 C-15.84354836 13.99782895 -16.31585908 7.75089577 -12.5625 2.6875 C-8.8907983 -0.84432735 -4.84389215 -1.04259012 0 0 Z " fill="#4F4F4F" transform="translate(84,167)"/>
<path d="M0 0 C3.43403788 2.00011167 6.21175747 4.42351494 8 8 C8.40282133 13.23667727 7.83087029 16.55148954 5 21 C0.62525221 24.96461519 -3.23260375 25.19550496 -9 25 C-9.95616211 24.76676025 -10.91232422 24.53352051 -11.89746094 24.29321289 C-15.86747169 23.91801751 -17.13148862 24.87533584 -20.328125 27.18359375 C-21.77445313 28.20356445 -21.77445313 28.20356445 -23.25 29.24414062 C-24.24 29.96794922 -25.23 30.69175781 -26.25 31.4375 C-28.2317755 32.85650208 -30.2160246 34.27205805 -32.203125 35.68359375 C-33.07614258 36.31837646 -33.94916016 36.95315918 -34.84863281 37.60717773 C-37 39 -37 39 -39 39 C-39.33 37.68 -39.66 36.36 -40 35 C-38.35770014 33.89871819 -36.71502262 32.79799584 -35.07055664 31.69995117 C-33.68581127 30.77205258 -32.30479074 29.83857186 -30.92749023 28.8996582 C-27.38577343 26.50249241 -23.95569371 24.47569386 -20.0625 22.6875 C-18.16097033 21.71014316 -18.16097033 21.71014316 -17 20 C-16.66503876 16.64157283 -16.81809582 13.47875239 -17.04296875 10.11328125 C-16.99777554 6.83882752 -16.70462998 5.69907713 -14.625 3.25 C-10.06980199 -0.65445544 -5.86433433 -0.95404842 0 0 Z " fill="#54A8F8" transform="translate(63,98)"/>
<path d="M0 0 C4.20475482 1.6997945 6.20472472 3.8425204 8 8 C8.64475627 12.97383408 7.91814102 16.3405342 5.26171875 20.48828125 C2.24624563 24.1012475 -1.09952346 24.90684725 -5.625 25.375 C-9.24661521 24.97259831 -10.24603302 24.18418071 -13 22 C-16.5575024 22.41833193 -18.97807937 24.15214839 -21.87890625 26.16015625 C-22.79994141 26.78857422 -23.72097656 27.41699219 -24.66992188 28.06445312 C-26.60277861 29.39957294 -28.53506802 30.73551445 -30.46679688 32.07226562 C-31.38654297 32.69939453 -32.30628906 33.32652344 -33.25390625 33.97265625 C-34.09252197 34.55281494 -34.9311377 35.13297363 -35.79516602 35.73071289 C-38 37 -38 37 -41 37 C-41.495 35.515 -41.495 35.515 -42 34 C-40.62790315 33.01676931 -39.25202578 32.03881571 -37.875 31.0625 C-36.97652344 30.41925781 -36.07804687 29.77601562 -35.15234375 29.11328125 C-32.86471714 27.57969266 -30.65946947 26.23026146 -28.25390625 24.91796875 C-21.2673007 21.36664116 -21.2673007 21.36664116 -17.0625 15.19140625 C-16.89715641 12.32817912 -16.89715641 12.32817912 -17.0546875 9.52734375 C-16.99134843 6.60017409 -16.43197835 5.57718212 -14.5625 3.375 C-10.04012165 -0.81647261 -5.95747556 -0.5168157 0 0 Z " fill="#0968C0" transform="translate(111,69)"/>
<path d="M0 0 C1.32 0 2.64 0 4 0 C4.33 0.66 4.66 1.32 5 2 C5.99 1.34 6.98 0.68 8 0 C11.06475543 -0.54522803 13.93524839 -0.54842924 17 0 C20 2.4375 20 2.4375 22 5 C22.33 5.33 22.66 5.66 23 6 C24.01842203 19.68994231 24.01842203 19.68994231 20 25 C16.49398102 27.85675621 12.30035653 27.27303851 8 27 C7.01 26.34 6.02 25.68 5 25 C4.67 29.29 4.34 33.58 4 38 C2.68 38 1.36 38 0 38 C0 25.46 0 12.92 0 0 Z " fill="#4B4B4B" transform="translate(98,167)"/>
<path d="M0 0 C3.12578143 1.6720747 5.39281175 3.7856235 7 7 C8.02705184 18.24705946 8.02705184 18.24705946 5.25 22.625 C2.52646006 25.49984771 0.52229342 26.76484898 -3.40234375 27.37109375 C-10.27030508 27.55099412 -10.27030508 27.55099412 -14.0625 24.6875 C-17.9103056 19.35022126 -17.77220724 13.36231616 -17 7 C-13.37253362 -0.22786212 -7.40784103 -1.04367745 0 0 Z " fill="#4C4C4C" transform="translate(152,167)"/>
<path d="M0 0 C0.66 0 1.32 0 2 0 C1.67 17.82 1.34 35.64 1 54 C17.17 54 33.34 54 50 54 C50 54.33 50 54.66 50 55 C34.16 55.33 18.32 55.66 2 56 C1.67 60.95 1.34 65.9 1 71 C0.01 71.495 0.01 71.495 -1 72 C-1 66.39 -1 60.78 -1 55 C-3.64 55.33 -6.28 55.66 -9 56 C-10.58708516 56.05108599 -12.17636216 56.06528275 -13.76367188 56.02172852 C-14.60393921 56.00163223 -15.44420654 55.98153595 -16.30993652 55.96083069 C-17.18734497 55.93379562 -18.06475342 55.90676056 -18.96875 55.87890625 C-19.88966431 55.85529526 -20.81057861 55.83168427 -21.75939941 55.80735779 C-24.67311575 55.7313708 -27.58652147 55.64707087 -30.5 55.5625 C-32.48696445 55.50921411 -34.47394363 55.45647427 -36.4609375 55.40429688 C-41.30754353 55.27686107 -46.15364068 55.13816375 -51 55 C-51 66.55 -51 78.1 -51 90 C-51.33 90 -51.66 90 -52 90 C-52 78.45 -52 66.9 -52 55 C-65.86 55 -79.72 55 -94 55 C-94 54.67 -94 54.34 -94 54 C-80.14 54 -66.28 54 -52 54 C-52 46.08 -52 38.16 -52 30 C-51.67 30 -51.34 30 -51 30 C-51 37.92 -51 45.84 -51 54 C-34.5 54 -18 54 -1 54 C-1.01160156 50.18566406 -1.02320312 46.37132812 -1.03515625 42.44140625 C-1.04294542 38.7645679 -1.04902298 35.08773046 -1.05493164 31.41088867 C-1.0599737 28.84708243 -1.06680714 26.28327909 -1.07543945 23.71948242 C-1.08751064 20.04344979 -1.09322942 16.36745502 -1.09765625 12.69140625 C-1.10281754 11.53725723 -1.10797882 10.38310822 -1.11329651 9.19398499 C-1.11337204 8.13296066 -1.11344757 7.07193634 -1.11352539 5.97875977 C-1.115746 5.03944107 -1.11796661 4.10012238 -1.12025452 3.13233948 C-1 1 -1 1 0 0 Z " fill="#FAFAFA" transform="translate(120,12)"/>
<path d="M0 0 C8.39285714 0 8.39285714 0 13 3 C15.76699253 7.37791284 15.78296244 11.98587693 15 17 C13.35016663 20.22079025 11.01261323 22.28137125 8.0625 24.375 C6 25 6 25 0 25 C0 16.75 0 8.5 0 0 Z " fill="#A8D5FE" transform="translate(10,130)"/>
<path d="M0 0 C5.53846154 3.07692308 5.53846154 3.07692308 7 6 C7.82495852 12.51852466 6.85578054 17.6565561 3 23 C0.1234446 26.16866688 -2.87816261 29.0618001 -6 32 C0.93 32.495 0.93 32.495 8 33 C8 34.32 8 35.64 8 37 C0.74 37 -6.52 37 -14 37 C-12.9412325 32.76493002 -12.37922215 32.09883612 -9.3125 29.3125 C-4.36929615 24.57378121 1.74232669 18.122773 2.1875 11 C2.32483785 7.88375675 2.32483785 7.88375675 0 6 C-2.10749466 5.71917656 -2.10749466 5.71917656 -4.4375 5.8125 C-5.21996094 5.81894531 -6.00242188 5.82539063 -6.80859375 5.83203125 C-9.17799677 5.92444331 -9.17799677 5.92444331 -12 7 C-11.75 4.625 -11.75 4.625 -11 2 C-7.70171128 -0.66400242 -4.06984099 -0.42101803 0 0 Z " fill="#4F4F4F" transform="translate(191,157)"/>
<path d="M0 0 C3.71859207 1.23953069 4.45063704 1.84327387 6.375 5.125 C7.12428901 9.64277195 6.80977267 13.87183171 5.3125 18.1875 C3.375 20.125 3.375 20.125 -0.0625 21.25 C-3.625 21.125 -3.625 21.125 -6 18.8125 C-8.58835784 14.53175434 -9.42930296 11.12647012 -8.625 6.125 C-6.71194393 1.96431752 -4.72644795 0.16298096 0 0 Z " fill="#EAEAEA" transform="translate(147.625,169.875)"/>
<path d="M0 0 C3.5 0.625 3.5 0.625 5.9375 2.625 C7.93513042 6.46045041 8.23699941 9.38296851 7.5 13.625 C6.34367254 15.98793002 5.35016245 17.77483755 3.5 19.625 C-2.29588336 20.09240995 -2.29588336 20.09240995 -4.5 19.625 C-6.60614704 17.54262438 -7.40665991 16.14215453 -7.93359375 13.22265625 C-7.93999735 9.06671843 -7.82143455 6.26786909 -5.9375 2.5 C-3.5 0.625 -3.5 0.625 0 0 Z " fill="#ECECEC" transform="translate(109.5,170.375)"/>
<path d="M0 0 C2.96034709 1.02968595 4.0159046 1.55353823 5.875 4 C6.74286235 9.05080252 6.58325804 13.61072462 4.25 18.1875 C1.875 20 1.875 20 -1.125 20.5625 C-4.125 20 -4.125 20 -6.5 18.6875 C-9.13426938 14.33082371 -8.96466116 9.94304877 -8.125 5 C-5.63731693 1.19530825 -4.58752823 0 0 0 Z " fill="#E9E9E9" transform="translate(54.125,170)"/>
<path d="M0 0 C3.22480601 0.82687334 4.3587432 2.04059965 6.4375 4.625 C6.96875 7.5 6.96875 7.5 6.9375 10.625 C6.9478125 11.65625 6.958125 12.6875 6.96875 13.75 C6.31499062 17.28799193 5.29778925 18.49380409 2.4375 20.625 C-1.125 20.75 -1.125 20.75 -4.5625 19.625 C-7.64087587 15.4542972 -8.29015934 11.71861541 -7.5625 6.625 C-5.76835734 3.26559708 -3.82839442 0.93375474 0 0 Z " fill="#EAEAEA" transform="translate(80.5625,169.375)"/>
<path d="M0 0 C1.32 0 2.64 0 4 0 C4 2.31 4 4.62 4 7 C6.31 7 8.62 7 11 7 C11 8.32 11 9.64 11 11 C8.69 11 6.38 11 4 11 C4.33 16.94 4.66 22.88 5 29 C6.65 29.33 8.3 29.66 10 30 C10 31.32 10 32.64 10 34 C2.60357023 34.48501179 2.60357023 34.48501179 0.25 32.59375 C-1.69260035 28.56285428 -1.31445889 24.65775206 -1.1875 20.25 C-1.16719727 18.91775391 -1.16719727 18.91775391 -1.14648438 17.55859375 C-1.11121309 15.37177422 -1.06192752 13.18620034 -1 11 C-1.99 11 -2.98 11 -4 11 C-4 9.68 -4 8.36 -4 7 C-3.01 7 -2.02 7 -1 7 C-1.020625 6.030625 -1.04125 5.06125 -1.0625 4.0625 C-1 1 -1 1 0 0 Z " fill="#535353" transform="translate(165,160)"/>
<path d="M0 0 C4.73474097 1.6996506 8.96167111 4.13659027 13.3125 6.625 C14.05306641 7.04523438 14.79363281 7.46546875 15.55664062 7.8984375 C17.37269011 8.92948495 19.18656533 9.96436046 21 11 C20.6875 12.875 20.6875 12.875 20 15 C15.74245794 17.83836137 11.99565637 17.88425385 7 17 C3.02069815 14.73529859 0.45444533 12.36333598 -1 8 C-1.125 4.375 -1.125 4.375 -1 1 C-0.67 0.67 -0.34 0.34 0 0 Z " fill="#060C46" transform="translate(207,62)"/>
<path d="M0 0 C0.33 0 0.66 0 1 0 C1 14.85 1 29.7 1 45 C10.24 45 19.48 45 29 45 C29 45.33 29 45.66 29 46 C19.76 46 10.52 46 1 46 C1 49.96 1 53.92 1 58 C-1.64 58 -4.28 58 -7 58 C-7 53.71 -7 49.42 -7 45 C-4.03 44.505 -4.03 44.505 -1 44 C-0.67 29.48 -0.34 14.96 0 0 Z " fill="#FBFCFC" transform="translate(17,72)"/>
<path d="M0 0 C1.32 0 2.64 0 4 0 C4 12.87 4 25.74 4 39 C2.68 39 1.36 39 0 39 C0 26.13 0 13.26 0 0 Z " fill="#424242" transform="translate(126,155)"/>
<path d="M0 0 C0.33 0 0.66 0 1 0 C1 4.29 1 8.58 1 13 C16.84 13 32.68 13 49 13 C49 13.33 49 13.66 49 14 C33.16 14 17.32 14 1 14 C1 29.84 1 45.68 1 62 C0.67 62 0.34 62 0 62 C0 46.16 0 30.32 0 14 C-7.92 14 -15.84 14 -24 14 C-24 13.67 -24 13.34 -24 13 C-16.08 13 -8.16 13 0 13 C0 8.71 0 4.42 0 0 Z " fill="#FCFCFC" transform="translate(171,104)"/>
<path d="M0 0 C0.33 0 0.66 0 1 0 C1 11.22 1 22.44 1 34 C17.17 34 33.34 34 50 34 C50 34.33 50 34.66 50 35 C33.83 35 17.66 35 1 35 C1 39.95 1 44.9 1 50 C0.67 50 0.34 50 0 50 C0 45.05 0 40.1 0 35 C-8.58 35 -17.16 35 -26 35 C-26 34.67 -26 34.34 -26 34 C-13.625 33.505 -13.625 33.505 -1 33 C-0.67 22.11 -0.34 11.22 0 0 Z " fill="#FCFCFC" transform="translate(68,186)"/>
<path d="M0 0 C0.59167969 0.20238281 1.18335937 0.40476562 1.79296875 0.61328125 C1.79296875 1.27328125 1.79296875 1.93328125 1.79296875 2.61328125 C-0.37841797 4.30908203 -0.37841797 4.30908203 -3.38671875 6.30859375 C-4.46050781 7.02402344 -5.53429687 7.73945312 -6.640625 8.4765625 C-7.20507324 8.8473291 -7.76952148 9.2180957 -8.35107422 9.60009766 C-10.07330744 10.73254495 -11.78703749 11.8770286 -13.5 13.0234375 C-21.94036082 18.61328125 -21.94036082 18.61328125 -24.20703125 18.61328125 C-24.53703125 17.29328125 -24.86703125 15.97328125 -25.20703125 14.61328125 C-20.82604291 11.67550912 -16.43757882 8.74960793 -12.04052734 5.8359375 C-10.54206121 4.83669404 -9.05454187 3.82105152 -7.5703125 2.80078125 C-2.69000822 -0.47134657 -2.69000822 -0.47134657 0 0 Z " fill="#505151" transform="translate(48.20703125,118.38671875)"/>
<path d="M0 0 C0.99 0.33 1.98 0.66 3 1 C1.52609742 4.7180808 -0.38571326 6.25932977 -3.68359375 8.453125 C-4.61107422 9.071875 -5.53855469 9.690625 -6.49414062 10.328125 C-7.46544922 10.96234375 -8.43675781 11.5965625 -9.4375 12.25 C-10.40494141 12.8996875 -11.37238281 13.549375 -12.36914062 14.21875 C-19.6063058 19 -19.6063058 19 -23 19 C-23.33 18.01 -23.66 17.02 -24 16 C-18.2634731 11.88926298 -12.44743123 7.89491344 -6.5625 4 C-5.95970215 3.59015869 -5.3569043 3.18031738 -4.73583984 2.75805664 C-3.20711505 1.75794221 -1.60677156 0.86920282 0 0 Z " fill="#4D4E4E" transform="translate(93,87)"/>
<path d="M0 0 C0.33 0 0.66 0 1 0 C1 8.25 1 16.5 1 25 C9.58 25 18.16 25 27 25 C27 25.33 27 25.66 27 26 C18.42 26 9.84 26 1 26 C1 30.95 1 35.9 1 41 C0.67 41 0.34 41 0 41 C0 36.05 0 31.1 0 26 C-16.17 26 -32.34 26 -49 26 C-49 25.67 -49 25.34 -49 25 C-33.16 24.67 -17.32 24.34 -1 24 C-0.67 16.08 -0.34 8.16 0 0 Z " fill="#FCFCFC" transform="translate(171,195)"/>
<path d="M0 0 C1.32 1.65 2.64 3.3 4 5 C3.431604 5.27110596 2.86320801 5.54221191 2.27758789 5.8215332 C-0.07237226 7.03744677 -2.23309766 8.39887471 -4.44140625 9.85546875 C-5.27220703 10.39494141 -6.10300781 10.93441406 -6.95898438 11.49023438 C-8.70277575 12.6270346 -10.44234342 13.77033877 -12.17773438 14.91992188 C-13.00724609 15.45552734 -13.83675781 15.99113281 -14.69140625 16.54296875 C-15.44623291 17.03821045 -16.20105957 17.53345215 -16.97875977 18.04370117 C-19 19 -19 19 -22 18 C-20.56504412 14.43156074 -18.95210196 13.02234905 -15.68359375 11.0546875 C-14.41418945 10.27544922 -14.41418945 10.27544922 -13.11914062 9.48046875 C-12.23419922 8.95066406 -11.34925781 8.42085937 -10.4375 7.875 C-8.68356172 6.81424255 -6.93211988 5.74934269 -5.18359375 4.6796875 C-4.40556396 4.21288574 -3.62753418 3.74608398 -2.82592773 3.26513672 C-0.85924098 2.11889643 -0.85924098 2.11889643 0 0 Z " fill="#4E4F50" transform="translate(166,96)"/>
<path d="M0 0 C2.47844448 0.37959055 3.71778864 0.70108 5.46386719 2.55053711 C6.12370605 3.5290564 6.12370605 3.5290564 6.796875 4.52734375 C7.28027344 5.23697266 7.76367188 5.94660156 8.26171875 6.67773438 C8.75285156 7.42345703 9.24398437 8.16917969 9.75 8.9375 C10.25660156 9.67935547 10.76320313 10.42121094 11.28515625 11.18554688 C15 16.70774722 15 16.70774722 15 19 C13.68 19.33 12.36 19.66 11 20 C9.15137476 17.42730008 7.32393137 14.84025143 5.5 12.25 C4.97535156 11.52039063 4.45070313 10.79078125 3.91015625 10.0390625 C3.41386719 9.33007812 2.91757813 8.62109375 2.40625 7.890625 C1.94541016 7.24125977 1.48457031 6.59189453 1.00976562 5.92285156 C0 4 0 4 0 0 Z " fill="#4E4F4F" transform="translate(113,91)"/>
<path d="M0 0 C1.32 1.32 2.64 2.64 4 4 C2.3603125 4.7734375 2.3603125 4.7734375 0.6875 5.5625 C-4.00557268 7.88804764 -8.31867441 10.71822983 -12.6796875 13.609375 C-15 15 -15 15 -17 15 C-17.33 14.01 -17.66 13.02 -18 12 C-12.16594374 7.65346984 -6.4266106 3.42752566 0 0 Z " fill="#4E4F50" transform="translate(206,72)"/>
<path d="M0 0 C2.31 0 4.62 0 7 0 C7 3.96 7 7.92 7 12 C4.69 12 2.38 12 0 12 C0 8.04 0 4.08 0 0 Z " fill="#F0F1F2" transform="translate(10,118)"/>
<path d="M0 0 C0 3.3 0 6.6 0 10 C-0.5775 9.21625 -1.155 8.4325 -1.75 7.625 C-5.03168944 3.79636233 -7.7946887 2.81223335 -12.75 2.375 C-13.54921875 2.30023438 -14.3484375 2.22546875 -15.171875 2.1484375 C-15.77515625 2.09945312 -16.3784375 2.05046875 -17 2 C-17 1.67 -17 1.34 -17 1 C-11.29014022 0.25983299 -5.75813575 -0.10469338 0 0 Z " fill="#D8E2EC" transform="translate(119,67)"/>
<path d="M0 0 C0.33 0 0.66 0 1 0 C1 2.97 1 5.94 1 9 C0.01 9.495 0.01 9.495 -1 10 C-2.1875 7.8125 -2.1875 7.8125 -3 5 C-1.6875 2.1875 -1.6875 2.1875 0 0 Z " fill="#D7E0E7" transform="translate(118,84)"/>
</svg>
